name analog
datacolumns 19
datarows 18
range 0.0 0.0085
endheader
time	ground_force_vx	ground_force_vy	ground_force_vz	ground_force_px	ground_force_py	ground_force_pz	l_ground_force_vx	l_ground_force_vy	l_ground_force_vz	l_ground_force_px	l_ground_force_py	l_ground_force_pz	ground_torque_x	ground_torque_y	ground_torque_z	l_ground_torque_x	l_ground_torque_y	l_ground_torque_z
0.0	-0.0	-0.0	-0.0	3.63558840751648	38.633731842041016	-373.5580139160156	-2.6479134559631348	-39.20147705078125	-341.0155944824219	-0.0	-0.0	-0.0	-0.0	-0.0	-0.0	87182.375	-13125.5537109375	-630.3009643554688
0.0005	-0.0	-0.0	-0.0	3.3632075786590576	38.4285888671875	-371.5452880859375	-2.75003433227539	-39.28139877319336	-340.9106140136719	-0.0	-0.0	-0.0	-0.0	-0.0	-0.0	86932.7734375	-13203.6279296875	-701.5117797851562
0.001	-0.0	-0.0	-0.0	3.822681665420532	38.73165130615234	-372.693359375	-2.621281862258911	-39.024898529052734	-339.6194763183594	-0.0	-0.0	-0.0	-0.0	-0.0	-0.0	86561.390625	-13121.17578125	-668.8486328125
0.0015	-0.0	-0.0	-0.0	3.327454090118408	38.74508666992188	-371.2976989746094	-2.8387451171875	-39.364967346191406	-338.5374755859375	-0.0	-0.0	-0.0	-0.0	-0.0	-0.0	86708.1640625	-13092.8330078125	-559.3223266601562
0.002	-0.0	-0.0	-0.0	3.1489577293396	38.49105072021485	-372.3943176269531	-2.847822427749634	-39.453369140625	-337.7863464355469	-0.0	-0.0	-0.0	-0.0	-0.0	-0.0	86124.8359375	-12968.5029296875	-583.13671875
0.0025	-0.0	-0.0	-0.0	3.010244846343994	38.619964599609375	-369.8319091796875	-2.8387451171875	-39.45343780517578	-338.3800354003906	-0.0	-0.0	-0.0	-0.0	-0.0	-0.0	86109.375	-12918.4033203125	-541.56640625
0.003	-0.0	-0.0	-0.0	2.791996479034424	38.41863632202149	-370.8913269042969	-2.470689058303833	-39.22798538208008	-337.03533935546875	-0.0	-0.0	-0.0	-0.0	-0.0	-0.0	85940.21875	-12674.384765625	-578.4920654296875
0.0035	-0.0	-0.0	-0.0	3.4559876918792725	38.13779830932617	-372.0426635742188	-2.4347176551818848	-39.470176696777344	-337.7333374023437	-0.0	-0.0	-0.0	-0.0	-0.0	-0.0	86122.671875	-12788.5625	-532.492431640625
0.004	-0.0	-0.0	-0.0	2.9468560218811035	38.6197624206543	-370.6014709472656	-2.395191192626953	-39.52887344360352	-337.7719116210937	-0.0	-0.0	-0.0	-0.0	-0.0	-0.0	86426.734375	-12911.3271484375	-397.3763427734375
0.0045000000000000005	-0.0	-0.0	-0.0	3.327057361602783	38.96038055419922	-371.2853088378906	-3.0755763053894043	-39.71864700317383	-338.3674011230469	-0.0	-0.0	-0.0	-0.0	-0.0	-0.0	86193.1796875	-12931.583984375	-499.02587890625
0.005	-0.0	-0.0	-0.0	3.403095960617065	39.12578582763672	-370.5894775390625	-2.6351735591888428	-39.62760162353516	-338.666015625	-0.0	-0.0	-0.0	-0.0	-0.0	-0.0	86122.390625	-12948.2060546875	-469.07562255859375
0.0055	-0.0	-0.0	-0.0	3.174603223800659	38.80866622924805	-370.7442626953125	-2.3821537494659424	-39.36551284790039	-337.978759765625	-0.0	-0.0	-0.0	-0.0	-0.0	-0.0	85742.3671875	-12966.986328125	-317.0526428222656
0.006	-0.0	-0.0	-0.0	3.86009693145752	38.53037643432617	-372.4064331054688	-2.1680946350097656	-39.29019927978516	-339.1192932128906	-0.0	-0.0	-0.0	-0.0	-0.0	-0.0	86076.875	-12633.0810546875	-481.0019226074219
0.006500000000000001	-0.0	-0.0	-0.0	3.5164387226104736	38.61943435668945	-373.4071350097656	-2.1788463592529297	-39.46688079833984	-337.978759765625	-0.0	-0.0	-0.0	-0.0	-0.0	-0.0	86245.1953125	-12543.046875	-380.5581970214844
0.007	-0.0	-0.0	-0.0	3.313746690750122	39.01322555541992	-371.8017883300781	-2.3822543621063232	-39.2405891418457	-341.4193725585937	-0.0	-0.0	-0.0	-0.0	-0.0	-0.0	86396.1015625	-12818.6591796875	-316.9537048339844
0.0075	-0.0	-0.0	-0.0	3.860602617263794	38.73296737670898	-373.9663696289063	-2.356457233428955	-39.32886505126953	-339.3245544433594	-0.0	-0.0	-0.0	-0.0	-0.0	-0.0	86539.875	-12858.9365234375	-388.66314697265625
0.008	-0.0	-0.0	-0.0	3.96289587020874	38.56874847412109	-370.9451904296875	-1.8886741399765012	-39.71912384033203	-340.4735107421875	-0.0	-0.0	-0.0	-0.0	-0.0	-0.0	86413.3125	-12956.59375	-413.8137817382813
0.0085	-0.0	-0.0	-0.0	3.046013832092285	38.79741668701172	-371.5422058105469	-1.749686598777771	-39.54255676269531	-341.47027587890625	-0.0	-0.0	-0.0	-0.0	-0.0	-0.0	86761.953125	-13164.607421875	-270.0622253417969
